<svg xmlns="http://www.w3.org/2000/svg" xmlns:cc="http://web.resource.org/cc/" xmlns:svg="http://www.w3.org/2000/svg" xmlns:xlink="http://www.w3.org/1999/xlink" id="svg4908" width="48" height="48" version="1.0"><defs id="defs4910"><linearGradient id="linearGradient6210"><stop id="stop6212" offset="0" style="stop-color:#cacfc5;stop-opacity:1"/><stop id="stop6214" offset="1" style="stop-color:#fefefe;stop-opacity:1"/></linearGradient><linearGradient id="linearGradient6166"><stop style="stop-color:#a2a3a0;stop-opacity:1" id="stop6168" offset="0"/><stop style="stop-color:#72746f;stop-opacity:1" id="stop6170" offset="1"/></linearGradient><radialGradient id="radialGradient3847" cx="605.714" cy="486.648" r="117.143" fx="605.714" fy="486.648" gradientTransform="matrix(-2.774389,0,0,1.969706,112.7623,-872.8854)" gradientUnits="userSpaceOnUse" xlink:href="#linearGradient5060"/><radialGradient id="radialGradient3845" cx="605.714" cy="486.648" r="117.143" fx="605.714" fy="486.648" gradientTransform="matrix(2.774389,0,0,1.969706,-1891.633,-872.8854)" gradientUnits="userSpaceOnUse" xlink:href="#linearGradient5060"/><linearGradient id="linearGradient3843" x1="302.857" x2="302.857" y1="366.648" y2="609.505" gradientTransform="matrix(2.774389,0,0,1.969706,-1892.179,-872.8854)" gradientUnits="userSpaceOnUse" xlink:href="#linearGradient5048"/><linearGradient id="linearGradient2787" x1="24.926" x2="24.926" y1="40" y2="19.539" gradientTransform="translate(-42.437499,-7.812497)" gradientUnits="userSpaceOnUse" xlink:href="#linearGradient2781"/><linearGradient id="linearGradient3680" x1="23.069" x2="23.069" y1="6.799" y2="12.403" gradientTransform="translate(-42.437499,-7.812497)" gradientUnits="userSpaceOnUse" xlink:href="#linearGradient3674"/><linearGradient id="linearGradient3696" x1="9.5" x2="9.5" y1="16.264" y2="13.409" gradientTransform="translate(-42.437499,-7.812497)" gradientUnits="userSpaceOnUse" xlink:href="#linearGradient3690"/><linearGradient id="linearGradient9410"><stop style="stop-color:#2e3436;stop-opacity:1" id="stop9412" offset="0"/><stop style="stop-color:#2e3436;stop-opacity:0" id="stop9414" offset="1"/></linearGradient><linearGradient id="linearGradient9394"><stop style="stop-color:#6d706b;stop-opacity:1" id="stop9396" offset="0"/><stop id="stop9402" offset=".5" style="stop-color:#8b8e89;stop-opacity:1"/><stop style="stop-color:#555753;stop-opacity:1" id="stop9398" offset="1"/></linearGradient><radialGradient id="radialGradient5802" cx="605.714" cy="486.648" r="117.143" fx="605.714" fy="486.648" gradientTransform="matrix(-2.774389,0,0,1.969706,112.7623,-872.8854)" gradientUnits="userSpaceOnUse" xlink:href="#linearGradient5060"/><linearGradient id="linearGradient5060"><stop id="stop5062" offset="0" style="stop-color:black;stop-opacity:1"/><stop id="stop5064" offset="1" style="stop-color:black;stop-opacity:0"/></linearGradient><radialGradient id="radialGradient5800" cx="605.714" cy="486.648" r="117.143" fx="605.714" fy="486.648" gradientTransform="matrix(2.774389,0,0,1.969706,-1891.633,-872.8854)" gradientUnits="userSpaceOnUse" xlink:href="#linearGradient5060"/><linearGradient id="linearGradient5048"><stop id="stop5050" offset="0" style="stop-color:black;stop-opacity:0"/><stop style="stop-color:black;stop-opacity:1" id="stop5056" offset=".5"/><stop id="stop5052" offset="1" style="stop-color:black;stop-opacity:0"/></linearGradient><linearGradient id="linearGradient5798" x1="302.857" x2="302.857" y1="366.648" y2="609.505" gradientTransform="matrix(2.774389,0,0,1.969706,-1892.179,-872.8854)" gradientUnits="userSpaceOnUse" xlink:href="#linearGradient5048"/><linearGradient id="linearGradient3674"><stop style="stop-color:#3465a4;stop-opacity:1" id="stop3676" offset="0"/><stop style="stop-color:#729fcf;stop-opacity:1" id="stop3678" offset="1"/></linearGradient><linearGradient id="linearGradient2781"><stop style="stop-color:#d3d7cf;stop-opacity:1" id="stop2783" offset="0"/><stop style="stop-color:#eeeeec;stop-opacity:1" id="stop2785" offset="1"/></linearGradient><linearGradient id="linearGradient3690"><stop style="stop-color:white;stop-opacity:1" id="stop3692" offset="0"/><stop style="stop-color:white;stop-opacity:.46875" id="stop3694" offset="1"/></linearGradient><linearGradient id="linearGradient5841" x1="9.5" x2="9.5" y1="16.264" y2="13.409" gradientTransform="matrix(1.1290321,0,0,1.0725947,-5.225805,-5.7949548)" gradientUnits="userSpaceOnUse" xlink:href="#linearGradient3690"/><linearGradient id="linearGradient2378"><stop id="stop2380" offset="0" style="stop-color:#fff;stop-opacity:1"/><stop style="stop-color:#fefede;stop-opacity:.91836733" id="stop4146" offset=".25"/><stop style="stop-color:#f5f328;stop-opacity:1" id="stop2386" offset=".5"/><stop id="stop2382" offset="1" style="stop-color:#f5f32d;stop-opacity:.12234043"/></linearGradient><linearGradient id="linearGradient8403" x1="23.069" x2="23.069" y1="6.799" y2="12.403" gradientTransform="matrix(0.756708,0,0,0.7003322,-2.923171,-1.4542801)" gradientUnits="userSpaceOnUse" xlink:href="#linearGradient3674"/><linearGradient id="linearGradient9400" x1="11.283" x2="18.916" y1="16.561" y2="16.746" gradientTransform="matrix(2.3000003,0,0,2.3636363,-3.950004,-5.4234633)" gradientUnits="userSpaceOnUse" xlink:href="#linearGradient9394"/><radialGradient id="radialGradient9416" cx="13.066" cy="19.082" r="5.878" fx="13.066" fy="19.082" gradientTransform="matrix(0.9564279,0,0,0.4076802,0.5693228,12.015763)" gradientUnits="userSpaceOnUse" xlink:href="#linearGradient9410"/><radialGradient id="radialGradient6172" cx="14.499" cy="11.129" r="4.954" fx="14.499" fy="11.129" gradientTransform="matrix(1.1269365,-1.505367e-2,6.448443e-3,0.4424151,-1.9122096,6.768159)" gradientUnits="userSpaceOnUse" xlink:href="#linearGradient6166"/><radialGradient id="radialGradient6226" cx="19.083" cy="24.162" r="12.829" fx="19.083" fy="24.162" gradientTransform="matrix(2.1385217,-0.2118571,9.4134657e-2,1.0138644,-20.059821,2.8648571)" gradientUnits="userSpaceOnUse" xlink:href="#linearGradient6210"/></defs><metadata id="metadata4913"/><g id="layer1"><path style="opacity:1;fill:url(#radialGradient9416);fill-opacity:1;stroke:none;stroke-width:1;stroke-linecap:round;stroke-linejoin:round;stroke-miterlimit:4;stroke-dasharray:none;stroke-dashoffset:0;stroke-opacity:1" id="path9408" d="M 18.959301 20.165941 A 5.8778253 2.0108349 0 1 1 7.20365,20.165941 A 5.8778253 2.0108349 0 1 1 18.959301 20.165941 z" transform="matrix(2.3818333,0,0,2.9838352,2.8421067,-18.277131)"/><g style="opacity:.58730164;display:inline" id="g5022" transform="matrix(2.1670245e-2,0,0,1.6723905e-2,42.274287,33.52024)"><rect id="rect4173" width="1339.633" height="478.357" x="-1559.252" y="-150.697" style="opacity:.40206185;color:#000;fill:url(#linearGradient5798);fill-opacity:1;fill-rule:nonzero;stroke:none;stroke-width:1;stroke-linecap:round;stroke-linejoin:miter;marker:none;marker-start:none;marker-mid:none;marker-end:none;stroke-miterlimit:4;stroke-dasharray:none;stroke-dashoffset:0;stroke-opacity:1;visibility:visible;display:inline;overflow:visible"/><path id="path5058" d="M -219.61876,-150.68038 C -219.61876,-150.68038 -219.61876,327.65041 -219.61876,327.65041 C -76.744594,328.55086 125.78146,220.48075 125.78138,88.454235 C 125.78138,-43.572302 -33.655436,-150.68036 -219.61876,-150.68038 z" style="opacity:.40206185;color:#000;fill:url(#radialGradient5800);fill-opacity:1;fill-rule:nonzero;stroke:none;stroke-width:1;stroke-linecap:round;stroke-linejoin:miter;marker:none;marker-start:none;marker-mid:none;marker-end:none;stroke-miterlimit:4;stroke-dasharray:none;stroke-dashoffset:0;stroke-opacity:1;visibility:visible;display:inline;overflow:visible"/><path style="opacity:.40206185;color:#000;fill:url(#radialGradient5802);fill-opacity:1;fill-rule:nonzero;stroke:none;stroke-width:1;stroke-linecap:round;stroke-linejoin:miter;marker:none;marker-start:none;marker-mid:none;marker-end:none;stroke-miterlimit:4;stroke-dasharray:none;stroke-dashoffset:0;stroke-opacity:1;visibility:visible;display:inline;overflow:visible" id="path5018" d="M -1559.2523,-150.68038 C -1559.2523,-150.68038 -1559.2523,327.65041 -1559.2523,327.65041 C -1702.1265,328.55086 -1904.6525,220.48075 -1904.6525,88.454235 C -1904.6525,-43.572302 -1745.2157,-150.68036 -1559.2523,-150.68038 z"/></g><g id="g5849" transform="matrix(1.4817551,0,0,1.4344567,-0.7047951,-2.9513043)"><rect id="rect1887" width="24.971" height="22.632" x="3.509" y="4.87" rx="1.023" ry="1.034" style="fill:url(#radialGradient6226);fill-opacity:1;stroke:#888a85;stroke-width:.68591148;stroke-miterlimit:4;stroke-dasharray:none;stroke-opacity:1"/><path id="rect2776" d="M 3.5088435,8.3259137 L 3.5088435,5.8992155 C 3.5088435,5.123247 4.1838267,4.4985504 5.0222588,4.4985504 L 26.966781,4.4985504 C 27.805213,4.4985504 28.480196,5.123247 28.480196,5.8992155 L 28.480196,8.3259137" style="fill:url(#linearGradient8403);fill-opacity:1;stroke:#204a87;stroke-width:.6859116;stroke-miterlimit:4;stroke-opacity:1"/></g><rect style="opacity:.8;fill:none;fill-opacity:1;stroke:url(#linearGradient5841);stroke-width:1.00000036;stroke-miterlimit:4;stroke-dasharray:none;stroke-opacity:1" id="rect2779" width="35" height="31.105" x="5.5" y="4.395" rx="1.251" ry="1.251"/><rect style="opacity:1;fill:#fff;fill-opacity:1;stroke:#767874;stroke-width:1;stroke-linecap:round;stroke-linejoin:round;stroke-miterlimit:4;stroke-dasharray:none;stroke-dashoffset:0;stroke-opacity:1" id="rect8405" width="13" height="3" x="23.5" y="12.395" rx="0" ry="0"/><rect style="opacity:1;fill:#dedede;fill-opacity:1;stroke:#767874;stroke-width:1;stroke-linecap:round;stroke-linejoin:round;stroke-miterlimit:4;stroke-dasharray:none;stroke-dashoffset:0;stroke-opacity:1" id="rect8407" width="14.463" height="4.168" x="24.641" y="22.158" rx="0" ry="0"/><rect style="opacity:1;fill:url(#linearGradient9400);fill-opacity:1;stroke:#3f484a;stroke-width:1;stroke-linecap:round;stroke-linejoin:round;stroke-miterlimit:4;stroke-dasharray:none;stroke-dashoffset:0;stroke-opacity:1" id="rect8413" width="23" height="26" x="22.5" y="19.395" rx="11.5" ry="5.284"/><rect style="opacity:1;fill:#fff;fill-opacity:1;stroke:#767874;stroke-width:1;stroke-linecap:round;stroke-linejoin:round;stroke-miterlimit:4;stroke-dasharray:none;stroke-dashoffset:0;stroke-opacity:1" id="rect6180" width="13" height="3" x="23.5" y="18.395" rx="0" ry="0"/><path style="opacity:1;fill:url(#radialGradient6172);fill-opacity:1;stroke:#3f484a;stroke-width:.40511227;stroke-linecap:round;stroke-linejoin:round;stroke-miterlimit:4;stroke-dasharray:none;stroke-dashoffset:0;stroke-opacity:1" id="path8421" d="M 21.080622 11.746952 A 4.7508736 1.9887378 0 1 1 11.578875,11.746952 A 4.7508736 1.9887378 0 1 1 21.080622 11.746952 z" transform="matrix(2.4235766,0,0,2.5141574,-5.5905005,-5.1389725)"/><rect style="opacity:.16304351;fill:none;fill-opacity:1;stroke:#fff;stroke-width:1;stroke-linecap:round;stroke-linejoin:round;stroke-miterlimit:4;stroke-dasharray:none;stroke-dashoffset:0;stroke-opacity:1" id="rect8423" width="21" height="24" x="23.5" y="20.395" rx="10.5" ry="4.216"/><path style="opacity:.19565214;fill:none;fill-opacity:1;stroke:#fff;stroke-width:.47386295;stroke-linecap:round;stroke-linejoin:round;stroke-miterlimit:4;stroke-dasharray:none;stroke-dashoffset:0;stroke-opacity:1" id="path9404" d="M 21.080622 11.746952 A 4.7508736 1.9887378 0 1 1 11.578875,11.746952 A 4.7508736 1.9887378 0 1 1 21.080622 11.746952 z" transform="matrix(2.21012,0,0,2.0150163,-2.0907022,0.7317538)"/><path style="opacity:.21739131;fill:#fff;fill-opacity:1;fill-rule:evenodd;stroke:none;stroke-width:1px;stroke-linecap:butt;stroke-linejoin:miter;stroke-opacity:1" id="path5189" d="M 23,30.269714 C 23,30.269714 24.75,34.050964 34,33.894714 C 43.1875,33.738464 45,30.144714 45,30.144714 C 45,30.144714 41.4375,32.800964 34,32.894714 C 26.625,32.988464 23,30.269714 23,30.269714 z"/><path style="opacity:.40760869;fill:#222728;fill-opacity:1;fill-rule:evenodd;stroke:none;stroke-width:1px;stroke-linecap:butt;stroke-linejoin:miter;stroke-opacity:1" id="path6160" d="M 23,30.452502 C 23,30.452502 24.75,35.046252 34,34.890002 C 43.1875,34.733752 45,30.327502 45,30.327502 C 45,30.327502 42.75,33.796252 34,33.890002 C 25.1875,33.983752 23,30.452502 23,30.452502 z"/><path style="opacity:.21739131;fill:#fff;fill-opacity:1;fill-rule:evenodd;stroke:none;stroke-width:1px;stroke-linecap:butt;stroke-linejoin:miter;stroke-opacity:1" id="path6162" d="M 23,36.270529 C 23,36.270529 24.75,40.051779 34,39.895529 C 43.1875,39.739279 45,36.145529 45,36.145529 C 45,36.145529 41.4375,38.801779 34,38.895529 C 26.625,38.989279 23,36.270529 23,36.270529 z"/><path style="opacity:.40760869;fill:#222728;fill-opacity:1;fill-rule:evenodd;stroke:none;stroke-width:1px;stroke-linecap:butt;stroke-linejoin:miter;stroke-opacity:1" id="path6164" d="M 23,36.453317 C 23,36.453317 24.75,41.047067 34,40.890817 C 43.1875,40.734567 45,36.328317 45,36.328317 C 45,36.328317 42.75,39.797067 34,39.890817 C 25.1875,39.984567 23,36.453317 23,36.453317 z"/><rect style="opacity:.71195652;fill:#585956;fill-opacity:1;stroke:none;stroke-width:1;stroke-linecap:round;stroke-linejoin:round;stroke-miterlimit:4;stroke-dasharray:none;stroke-dashoffset:0;stroke-opacity:1" id="rect6174" width="11" height="2" x="9" y="12.895" rx="0" ry="0"/><rect style="opacity:.71195652;fill:#585956;fill-opacity:1;stroke:none;stroke-width:1;stroke-linecap:round;stroke-linejoin:round;stroke-miterlimit:4;stroke-dasharray:none;stroke-dashoffset:0;stroke-opacity:1" id="rect6176" width="11" height="2" x="9" y="18.895" rx="0" ry="0"/><rect style="opacity:.71195652;fill:#585956;fill-opacity:1;stroke:none;stroke-width:1;stroke-linecap:round;stroke-linejoin:round;stroke-miterlimit:4;stroke-dasharray:none;stroke-dashoffset:0;stroke-opacity:1" id="rect6178" width="11" height="2" x="9" y="24.895" rx="0" ry="0"/></g></svg>